<mxfile modified="2022-04-26T09:35:07.565Z" host="app.diagrams.net" agent="5.0 (Windows NT 10.0; Win64; x64) AppleWebKit/537.36 (KHTML, like Gecko) Chrome/100.0.4896.127 Safari/537.36 Edg/100.0.1185.50" etag="3pKvzKzp9RkxFtNeAJck" version="17.4.6" type="github">
  <diagram id="Ht1M8jgEwFfnCIfOTk4-" name="Page-1">
    <mxGraphModel dx="2031" dy="1089" grid="1" gridSize="10" guides="1" tooltips="1" connect="1" arrows="1" fold="1" page="1" pageScale="1" pageWidth="1169" pageHeight="827" math="0" shadow="0">
      <root>
        <mxCell id="0" />
        <mxCell id="1" parent="0" />
        <mxCell id="HCxDBBi715IFel4usdro-1" value="AWS Cloud" style="sketch=0;outlineConnect=0;gradientColor=none;html=1;whiteSpace=wrap;fontSize=12;fontStyle=0;shape=mxgraph.aws4.group;grIcon=mxgraph.aws4.group_aws_cloud;strokeColor=#AAB7B8;fillColor=none;verticalAlign=top;align=left;spacingLeft=30;fontColor=#AAB7B8;dashed=0;" vertex="1" parent="1">
          <mxGeometry x="80" y="20" width="1040" height="750" as="geometry" />
        </mxCell>
        <mxCell id="HCxDBBi715IFel4usdro-2" value="VPC" style="sketch=0;outlineConnect=0;gradientColor=none;html=1;whiteSpace=wrap;fontSize=12;fontStyle=0;shape=mxgraph.aws4.group;grIcon=mxgraph.aws4.group_vpc;strokeColor=#879196;fillColor=none;verticalAlign=top;align=left;spacingLeft=30;fontColor=#879196;dashed=0;" vertex="1" parent="1">
          <mxGeometry x="80" y="55" width="970" height="695" as="geometry" />
        </mxCell>
        <mxCell id="HCxDBBi715IFel4usdro-7" value="public-rtb" style="swimlane;" vertex="1" parent="1">
          <mxGeometry x="180" y="82.5" width="420" height="657.5" as="geometry" />
        </mxCell>
        <mxCell id="HCxDBBi715IFel4usdro-4" value="va-subnets-public-1a &lt;span&gt;	&lt;/span&gt;172.16.10.0/24&amp;nbsp;" style="sketch=0;outlineConnect=0;gradientColor=none;html=1;whiteSpace=wrap;fontSize=12;fontStyle=0;shape=mxgraph.aws4.group;grIcon=mxgraph.aws4.group_subnet;strokeColor=#879196;fillColor=none;verticalAlign=top;align=left;spacingLeft=30;fontColor=#879196;dashed=0;" vertex="1" parent="HCxDBBi715IFel4usdro-7">
          <mxGeometry x="-100" y="37.5" width="505" height="170" as="geometry" />
        </mxCell>
        <mxCell id="HCxDBBi715IFel4usdro-12" value="va-subnets-public-1c 172.16.12.0/24&lt;br&gt;" style="sketch=0;outlineConnect=0;gradientColor=none;html=1;whiteSpace=wrap;fontSize=12;fontStyle=0;shape=mxgraph.aws4.group;grIcon=mxgraph.aws4.group_subnet;strokeColor=#879196;fillColor=none;verticalAlign=top;align=left;spacingLeft=30;fontColor=#879196;dashed=0;" vertex="1" parent="HCxDBBi715IFel4usdro-7">
          <mxGeometry x="20" y="430" width="380" height="200" as="geometry" />
        </mxCell>
        <mxCell id="HCxDBBi715IFel4usdro-11" value="va-subnets-public-1b 172.16.11.0/24" style="sketch=0;outlineConnect=0;gradientColor=none;html=1;whiteSpace=wrap;fontSize=12;fontStyle=0;shape=mxgraph.aws4.group;grIcon=mxgraph.aws4.group_subnet;strokeColor=#879196;fillColor=none;verticalAlign=top;align=left;spacingLeft=30;fontColor=#879196;dashed=0;" vertex="1" parent="HCxDBBi715IFel4usdro-7">
          <mxGeometry x="20" y="227.5" width="380" height="185" as="geometry" />
        </mxCell>
        <mxCell id="HCxDBBi715IFel4usdro-20" value="&lt;span style=&quot;color: rgb(22 , 25 , 31) ; font-family: &amp;#34;amazon ember&amp;#34; , &amp;#34;helvetica neue&amp;#34; , &amp;#34;roboto&amp;#34; , &amp;#34;arial&amp;#34; , sans-serif ; font-size: 14px ; background-color: rgb(241 , 250 , 255)&quot;&gt;Authorization&lt;/span&gt;" style="points=[[0,0],[0.25,0],[0.5,0],[0.75,0],[1,0],[1,0.25],[1,0.5],[1,0.75],[1,1],[0.75,1],[0.5,1],[0.25,1],[0,1],[0,0.75],[0,0.5],[0,0.25]];outlineConnect=0;gradientColor=none;html=1;whiteSpace=wrap;fontSize=12;fontStyle=0;container=1;pointerEvents=0;collapsible=0;recursiveResize=0;shape=mxgraph.aws4.group;grIcon=mxgraph.aws4.group_ec2_instance_contents;strokeColor=#D86613;fillColor=none;verticalAlign=top;align=left;spacingLeft=30;fontColor=#D86613;dashed=0;" vertex="1" parent="HCxDBBi715IFel4usdro-7">
          <mxGeometry x="60" y="257.5" width="130" height="26.5" as="geometry" />
        </mxCell>
        <mxCell id="HCxDBBi715IFel4usdro-22" value="&lt;span style=&quot;color: rgb(22 , 25 , 31) ; font-family: &amp;#34;amazon ember&amp;#34; , &amp;#34;helvetica neue&amp;#34; , &amp;#34;roboto&amp;#34; , &amp;#34;arial&amp;#34; , sans-serif ; font-size: 14px ; background-color: rgb(241 , 250 , 255)&quot;&gt;Authorization&lt;/span&gt;" style="points=[[0,0],[0.25,0],[0.5,0],[0.75,0],[1,0],[1,0.25],[1,0.5],[1,0.75],[1,1],[0.75,1],[0.5,1],[0.25,1],[0,1],[0,0.75],[0,0.5],[0,0.25]];outlineConnect=0;gradientColor=none;html=1;whiteSpace=wrap;fontSize=12;fontStyle=0;container=1;pointerEvents=0;collapsible=0;recursiveResize=0;shape=mxgraph.aws4.group;grIcon=mxgraph.aws4.group_ec2_instance_contents;strokeColor=#D86613;fillColor=none;verticalAlign=top;align=left;spacingLeft=30;fontColor=#D86613;dashed=0;" vertex="1" parent="HCxDBBi715IFel4usdro-7">
          <mxGeometry x="60" y="297.5" width="130" height="26.5" as="geometry" />
        </mxCell>
        <mxCell id="HCxDBBi715IFel4usdro-23" value="&lt;span style=&quot;color: rgb(22 , 25 , 31) ; font-family: &amp;#34;amazon ember&amp;#34; , &amp;#34;helvetica neue&amp;#34; , &amp;#34;roboto&amp;#34; , &amp;#34;arial&amp;#34; , sans-serif ; font-size: 14px ; background-color: rgb(241 , 250 , 255)&quot;&gt;Client&lt;/span&gt;" style="points=[[0,0],[0.25,0],[0.5,0],[0.75,0],[1,0],[1,0.25],[1,0.5],[1,0.75],[1,1],[0.75,1],[0.5,1],[0.25,1],[0,1],[0,0.75],[0,0.5],[0,0.25]];outlineConnect=0;gradientColor=none;html=1;whiteSpace=wrap;fontSize=12;fontStyle=0;container=1;pointerEvents=0;collapsible=0;recursiveResize=0;shape=mxgraph.aws4.group;grIcon=mxgraph.aws4.group_ec2_instance_contents;strokeColor=#D86613;fillColor=none;verticalAlign=top;align=left;spacingLeft=30;fontColor=#D86613;dashed=0;" vertex="1" parent="HCxDBBi715IFel4usdro-7">
          <mxGeometry x="60" y="337.5" width="80" height="30" as="geometry" />
        </mxCell>
        <mxCell id="HCxDBBi715IFel4usdro-26" value="&lt;span style=&quot;color: rgb(22 , 25 , 31) ; font-family: &amp;#34;amazon ember&amp;#34; , &amp;#34;helvetica neue&amp;#34; , &amp;#34;roboto&amp;#34; , &amp;#34;arial&amp;#34; , sans-serif ; font-size: 14px ; background-color: rgb(241 , 250 , 255)&quot;&gt;Client&lt;/span&gt;" style="points=[[0,0],[0.25,0],[0.5,0],[0.75,0],[1,0],[1,0.25],[1,0.5],[1,0.75],[1,1],[0.75,1],[0.5,1],[0.25,1],[0,1],[0,0.75],[0,0.5],[0,0.25]];outlineConnect=0;gradientColor=none;html=1;whiteSpace=wrap;fontSize=12;fontStyle=0;container=1;pointerEvents=0;collapsible=0;recursiveResize=0;shape=mxgraph.aws4.group;grIcon=mxgraph.aws4.group_ec2_instance_contents;strokeColor=#D86613;fillColor=none;verticalAlign=top;align=left;spacingLeft=30;fontColor=#D86613;dashed=0;" vertex="1" parent="HCxDBBi715IFel4usdro-7">
          <mxGeometry x="55" y="477.5" width="80" height="30" as="geometry" />
        </mxCell>
        <mxCell id="HCxDBBi715IFel4usdro-27" value="&lt;span style=&quot;color: rgb(22 , 25 , 31) ; font-family: &amp;#34;amazon ember&amp;#34; , &amp;#34;helvetica neue&amp;#34; , &amp;#34;roboto&amp;#34; , &amp;#34;arial&amp;#34; , sans-serif ; font-size: 14px ; background-color: rgb(241 , 250 , 255)&quot;&gt;Database&lt;/span&gt;" style="points=[[0,0],[0.25,0],[0.5,0],[0.75,0],[1,0],[1,0.25],[1,0.5],[1,0.75],[1,1],[0.75,1],[0.5,1],[0.25,1],[0,1],[0,0.75],[0,0.5],[0,0.25]];outlineConnect=0;gradientColor=none;html=1;whiteSpace=wrap;fontSize=12;fontStyle=0;container=1;pointerEvents=0;collapsible=0;recursiveResize=0;shape=mxgraph.aws4.group;grIcon=mxgraph.aws4.group_ec2_instance_contents;strokeColor=#D86613;fillColor=none;verticalAlign=top;align=left;spacingLeft=30;fontColor=#D86613;dashed=0;" vertex="1" parent="HCxDBBi715IFel4usdro-7">
          <mxGeometry x="60" y="377.5" width="110" height="28.5" as="geometry" />
        </mxCell>
        <mxCell id="HCxDBBi715IFel4usdro-29" value="&lt;span style=&quot;color: rgb(22 , 25 , 31) ; font-family: &amp;#34;amazon ember&amp;#34; , &amp;#34;helvetica neue&amp;#34; , &amp;#34;roboto&amp;#34; , &amp;#34;arial&amp;#34; , sans-serif ; font-size: 14px ; background-color: rgb(241 , 250 , 255)&quot;&gt;GameServer&lt;/span&gt;" style="points=[[0,0],[0.25,0],[0.5,0],[0.75,0],[1,0],[1,0.25],[1,0.5],[1,0.75],[1,1],[0.75,1],[0.5,1],[0.25,1],[0,1],[0,0.75],[0,0.5],[0,0.25]];outlineConnect=0;gradientColor=none;html=1;whiteSpace=wrap;fontSize=12;fontStyle=0;container=1;pointerEvents=0;collapsible=0;recursiveResize=0;shape=mxgraph.aws4.group;grIcon=mxgraph.aws4.group_ec2_instance_contents;strokeColor=#D86613;fillColor=none;verticalAlign=top;align=left;spacingLeft=30;fontColor=#D86613;dashed=0;" vertex="1" parent="HCxDBBi715IFel4usdro-7">
          <mxGeometry x="55" y="518.75" width="120" height="22.5" as="geometry" />
        </mxCell>
        <mxCell id="HCxDBBi715IFel4usdro-30" value="&lt;span style=&quot;color: rgb(22 , 25 , 31) ; font-family: &amp;#34;amazon ember&amp;#34; , &amp;#34;helvetica neue&amp;#34; , &amp;#34;roboto&amp;#34; , &amp;#34;arial&amp;#34; , sans-serif ; font-size: 14px ; background-color: rgb(241 , 250 , 255)&quot;&gt;GameServer&lt;/span&gt;" style="points=[[0,0],[0.25,0],[0.5,0],[0.75,0],[1,0],[1,0.25],[1,0.5],[1,0.75],[1,1],[0.75,1],[0.5,1],[0.25,1],[0,1],[0,0.75],[0,0.5],[0,0.25]];outlineConnect=0;gradientColor=none;html=1;whiteSpace=wrap;fontSize=12;fontStyle=0;container=1;pointerEvents=0;collapsible=0;recursiveResize=0;shape=mxgraph.aws4.group;grIcon=mxgraph.aws4.group_ec2_instance_contents;strokeColor=#D86613;fillColor=none;verticalAlign=top;align=left;spacingLeft=30;fontColor=#D86613;dashed=0;" vertex="1" parent="HCxDBBi715IFel4usdro-7">
          <mxGeometry x="55" y="547.5" width="120" height="22.5" as="geometry" />
        </mxCell>
        <mxCell id="HCxDBBi715IFel4usdro-31" value="&lt;span style=&quot;color: rgb(22 , 25 , 31) ; font-family: &amp;#34;amazon ember&amp;#34; , &amp;#34;helvetica neue&amp;#34; , &amp;#34;roboto&amp;#34; , &amp;#34;arial&amp;#34; , sans-serif ; font-size: 14px ; background-color: rgb(241 , 250 , 255)&quot;&gt;ScheduleServe&lt;/span&gt;" style="points=[[0,0],[0.25,0],[0.5,0],[0.75,0],[1,0],[1,0.25],[1,0.5],[1,0.75],[1,1],[0.75,1],[0.5,1],[0.25,1],[0,1],[0,0.75],[0,0.5],[0,0.25]];outlineConnect=0;gradientColor=none;html=1;whiteSpace=wrap;fontSize=12;fontStyle=0;container=1;pointerEvents=0;collapsible=0;recursiveResize=0;shape=mxgraph.aws4.group;grIcon=mxgraph.aws4.group_ec2_instance_contents;strokeColor=#D86613;fillColor=none;verticalAlign=top;align=left;spacingLeft=30;fontColor=#D86613;dashed=0;" vertex="1" parent="HCxDBBi715IFel4usdro-7">
          <mxGeometry x="220" y="257.5" width="130" height="26.5" as="geometry" />
        </mxCell>
        <mxCell id="HCxDBBi715IFel4usdro-32" value="&lt;span style=&quot;color: rgb(22 , 25 , 31) ; font-family: &amp;#34;amazon ember&amp;#34; , &amp;#34;helvetica neue&amp;#34; , &amp;#34;roboto&amp;#34; , &amp;#34;arial&amp;#34; , sans-serif ; font-size: 14px ; background-color: rgb(241 , 250 , 255)&quot;&gt;WebServer&lt;/span&gt;" style="points=[[0,0],[0.25,0],[0.5,0],[0.75,0],[1,0],[1,0.25],[1,0.5],[1,0.75],[1,1],[0.75,1],[0.5,1],[0.25,1],[0,1],[0,0.75],[0,0.5],[0,0.25]];outlineConnect=0;gradientColor=none;html=1;whiteSpace=wrap;fontSize=12;fontStyle=0;container=1;pointerEvents=0;collapsible=0;recursiveResize=0;shape=mxgraph.aws4.group;grIcon=mxgraph.aws4.group_ec2_instance_contents;strokeColor=#D86613;fillColor=none;verticalAlign=top;align=left;spacingLeft=30;fontColor=#D86613;dashed=0;" vertex="1" parent="HCxDBBi715IFel4usdro-7">
          <mxGeometry x="220" y="296" width="130" height="29.5" as="geometry" />
        </mxCell>
        <mxCell id="HCxDBBi715IFel4usdro-35" value="ICMP" style="points=[[0,0],[0.25,0],[0.5,0],[0.75,0],[1,0],[1,0.25],[1,0.5],[1,0.75],[1,1],[0.75,1],[0.5,1],[0.25,1],[0,1],[0,0.75],[0,0.5],[0,0.25]];outlineConnect=0;gradientColor=none;html=1;whiteSpace=wrap;fontSize=12;fontStyle=0;container=1;pointerEvents=0;collapsible=0;recursiveResize=0;shape=mxgraph.aws4.group;grIcon=mxgraph.aws4.group_ec2_instance_contents;strokeColor=#D86613;fillColor=none;verticalAlign=top;align=left;spacingLeft=30;fontColor=#D86613;dashed=0;" vertex="1" parent="HCxDBBi715IFel4usdro-7">
          <mxGeometry x="190" y="480.25" width="100" height="24.5" as="geometry" />
        </mxCell>
        <mxCell id="HCxDBBi715IFel4usdro-13" value="private-rtb" style="swimlane;" vertex="1" parent="1">
          <mxGeometry x="630" y="82.5" width="400" height="640" as="geometry" />
        </mxCell>
        <mxCell id="HCxDBBi715IFel4usdro-14" value="va-subnets-private-1a&lt;span&gt;	&lt;/span&gt;172.16.20.0/24" style="sketch=0;outlineConnect=0;gradientColor=none;html=1;whiteSpace=wrap;fontSize=12;fontStyle=0;shape=mxgraph.aws4.group;grIcon=mxgraph.aws4.group_subnet;strokeColor=#879196;fillColor=none;verticalAlign=top;align=left;spacingLeft=30;fontColor=#879196;dashed=0;" vertex="1" parent="HCxDBBi715IFel4usdro-13">
          <mxGeometry x="20" y="27.5" width="360" height="180" as="geometry" />
        </mxCell>
        <mxCell id="HCxDBBi715IFel4usdro-15" value="va-subnets-private-1c&lt;span&gt;	&lt;/span&gt;172.16.22.0/24" style="sketch=0;outlineConnect=0;gradientColor=none;html=1;whiteSpace=wrap;fontSize=12;fontStyle=0;shape=mxgraph.aws4.group;grIcon=mxgraph.aws4.group_subnet;strokeColor=#879196;fillColor=none;verticalAlign=top;align=left;spacingLeft=30;fontColor=#879196;dashed=0;" vertex="1" parent="HCxDBBi715IFel4usdro-13">
          <mxGeometry x="20" y="430" width="360" height="200" as="geometry" />
        </mxCell>
        <mxCell id="HCxDBBi715IFel4usdro-16" value="va-subnets-private-1b&lt;span&gt;	&lt;/span&gt;172.16.21.0/24" style="sketch=0;outlineConnect=0;gradientColor=none;html=1;whiteSpace=wrap;fontSize=12;fontStyle=0;shape=mxgraph.aws4.group;grIcon=mxgraph.aws4.group_subnet;strokeColor=#879196;fillColor=none;verticalAlign=top;align=left;spacingLeft=30;fontColor=#879196;dashed=0;" vertex="1" parent="HCxDBBi715IFel4usdro-13">
          <mxGeometry x="20" y="226" width="360" height="184" as="geometry" />
        </mxCell>
        <mxCell id="HCxDBBi715IFel4usdro-18" value="&lt;span style=&quot;color: rgb(22 , 25 , 31) ; font-family: &amp;#34;amazon ember&amp;#34; , &amp;#34;helvetica neue&amp;#34; , &amp;#34;roboto&amp;#34; , &amp;#34;arial&amp;#34; , sans-serif ; font-size: 14px ; background-color: rgb(241 , 250 , 255)&quot;&gt;nginx&lt;/span&gt;" style="points=[[0,0],[0.25,0],[0.5,0],[0.75,0],[1,0],[1,0.25],[1,0.5],[1,0.75],[1,1],[0.75,1],[0.5,1],[0.25,1],[0,1],[0,0.75],[0,0.5],[0,0.25]];outlineConnect=0;gradientColor=none;html=1;whiteSpace=wrap;fontSize=12;fontStyle=0;container=1;pointerEvents=0;collapsible=0;recursiveResize=0;shape=mxgraph.aws4.group;grIcon=mxgraph.aws4.group_ec2_instance_contents;strokeColor=#D86613;fillColor=none;verticalAlign=top;align=left;spacingLeft=30;fontColor=#D86613;dashed=0;" vertex="1" parent="1">
          <mxGeometry x="40" y="150" width="80" height="86" as="geometry" />
        </mxCell>
        <mxCell id="HCxDBBi715IFel4usdro-28" value="" style="shadow=0;dashed=0;html=1;labelPosition=center;verticalLabelPosition=bottom;verticalAlign=top;align=center;outlineConnect=0;shape=mxgraph.veeam.3d.proxy;" vertex="1" parent="HCxDBBi715IFel4usdro-18">
          <mxGeometry x="17" y="37" width="46" height="46" as="geometry" />
        </mxCell>
      </root>
    </mxGraphModel>
  </diagram>
</mxfile>
